# xmcd
#
# Track frame offsets:
#	150
#	15542
#	30627
#	45840
#	59520
#	73575
#	84220
#	99342
#	113172
#	125942
#	137517
#	148910
#	160185
#	176505
#
# Disc length: 2522 seconds
# Revision: 2
# Processed by: cddbd v1.5.2PL0 Copyright (c) Steve Scherf et al.
# Submitted via: dBpowerAMP V12.0
#
DISCID=b709d80e
DTITLE=Ricky Van Shelton - His Very Best
DYEAR=1991
DGENRE=Country
TTITLE0=Crime Of Passion
TTITLE1=Somebody Lied
TTITLE2=Life Turned Her That Way
TTITLE3=I Meant Every Word He Said
TTITLE4=I'll Leave This World Loving You
TTITLE5=From A Jack To A King
TTITLE6=Living Proof
TTITLE7=Statue Of A Fool
TTITLE8=Wild Eyed Dream
TTITLE9=Don't We All Have The Right
TTITLE10=Hole In My Pocket
TTITLE11=Ive Cried My Last Tear For You
TTITLE12=Life's Last Little Ups and Downs
TTITLE13=Oh Pretty Woman
EXTD=
EXTT0=
EXTT1=
EXTT2=
EXTT3=
EXTT4=
EXTT5=
EXTT6=
EXTT7=
EXTT8=
EXTT9=
EXTT10=
EXTT11=
EXTT12=
EXTT13=
PLAYORDER=
